# xmcd
#
# Track frame offsets:
#	150
#	20873
#	45132
#	68061
#	100408
#	118229
#	142265
#	163601
#	184271
#	208638
#	234880
#
# Disc length: 3483 seconds
#
# Revision: 1
# Processed by: cddbd v1.5.2PL0 Copyright (c) Steve Scherf et al.
# Submitted via: audiograbber 1.83.01
#
DISCID=9b0d990b
DTITLE=JIMMI SMITH - DOT COM BLUES
DYEAR=1900
DGENRE=
TTITLE0=ONLY IN IT FOR THE MONEY
TTITLE1=8 COUNTS FOR RITA
TTITLE2=STRUT
TTITLE3=CC RIDER
TTITLE4=I JUST WANNA MAKE LOVE TO YOU
TTITLE5=MOOD INDIGO
TTITLE6=OVER&OVER
TTITLE7=THREE O CLOCK BLUES
TTITLE8=DOT COM BLUES
TTITLE9=MR JOHNSON
TTITLE10=TUITION BLUES
EXTD=
EXTT0=
EXTT1=
EXTT2=
EXTT3=
EXTT4=
EXTT5=
EXTT6=
EXTT7=
EXTT8=
EXTT9=
EXTT10=
PLAYORDER=
